<?xml version="1.0" encoding="UTF-8"?>
<svg id="Layer_1" data-name="Layer 1" xmlns="http://www.w3.org/2000/svg" viewBox="0 0 500 500">
  <defs>
    <style>
      .cls-1, .cls-2 {
        fill: #fff;
      }

      .cls-3 {
        fill: none;
      }

      .cls-3, .cls-2 {
        stroke: #000;
        stroke-miterlimit: 10;
        stroke-width: 10px;
      }
    </style>
  </defs>
  <circle class="cls-3" cx="250.1" cy="250.14" r="196"/>
  <circle class="cls-3" cx="250.1" cy="250.14" r="155.5"/>
  <g>
    <rect class="cls-1" x="18.6" y="241.14" width="463" height="18"/>
    <path d="M476.6,246.14v8H23.6v-8H476.6m10-10H13.6v28H486.6v-28h0Z"/>
  </g>
  <path d="M250.1,107.14c22.65,0,44.27,14.28,60.88,40.21,17.49,27.31,27.12,63.81,27.12,102.79s-9.63,75.49-27.12,102.79c-16.61,25.93-38.23,40.21-60.88,40.21s-44.27-14.28-60.88-40.21c-17.49-27.31-27.12-63.81-27.12-102.79s9.63-75.49,27.12-102.79c16.61-25.93,38.23-40.21,60.88-40.21m0-10c-54.12,0-98,68.5-98,153s43.88,153,98,153,98-68.5,98-153-43.88-153-98-153h0Z"/>
  <ellipse class="cls-2" cx="250.1" cy="250.14" rx="105" ry="48.5"/>
  <g>
    <rect class="cls-1" x="241.1" y="18.64" width="18" height="463"/>
    <path d="M254.1,23.64V476.64h-8V23.64h8m10-10h-28V486.64h28V13.64h0Z"/>
  </g>
</svg>