<?xml version="1.0" encoding="UTF-8"?>
<svg xmlns="http://www.w3.org/2000/svg" viewBox="0 0 669.89 526.26">
  <defs>
    <style>
      .cls-1 {
        fill: #c1272d;
      }

      .cls-2 {
        fill: #fff;
        font-family: KiloRegular, Kilo;
        font-size: 10.04px;
      }

      .cls-3 {
        fill: red;
      }
    </style>
  </defs>
  <g id="Layer_8" data-name="Layer 8">
    <path class="cls-1" d="M2.78,168.77c-6.36-22.97-2.03-51.85,15.44-69.49,32.37-32.68,101.6-18.43,145.52,4.16,98.01,50.4,95.22,155.27,162.15,163.34,53.35,6.43,96.81-55.18,103.35-48.11,6.46,6.98-35.15,67.89-101.57,112.85-37.77,25.57-84.27,57.04-143.74,51.67-83.67-7.55-155.47-84.63-143.74-112.85,15.21-36.62,169.46,12.75,181.75-21.98,6.89-19.46-32.1-61.67-68.9-61.18-34.46,.46-43.03,38.01-79,38.61-29.13,.48-62-23.52-71.28-57.02Z"/>
    <path d="M663.14,388.11c-16.85-30.31-113.17,22.34-161.85-24.65-24.82-23.96-24.35-61.36-33.68-60.43-10.77,1.07,1.54,49.63-23.64,82.86-40.34,53.24-135.43,12.33-167.73,63.19-12.89,20.29-13.71,51.93,.34,65.94,29.27,29.17,140-1.29,212.21-57.86,18.53-14.51,38.42-33.8,65.75-31.83,32.32,2.33,43.82,32.13,67.95,28.2,26.55-4.32,51.07-46.66,40.64-65.41Z"/>
    <path class="cls-1" d="M75.07,182.81c11.08,4.71,21.5,10.84,31.04,18.18l-3.34-2.58c9.62,7.45,18.28,16.09,25.73,25.71l-2.58-3.34c7.28,9.46,13.32,19.8,17.98,30.78l-1.66-3.94c4.9,11.64,8.24,23.88,9.95,36.39l-.59-4.39c1.46,10.93,1.68,22,.58,32.97-.09,2.27,.39,4.39,1.42,6.36,.67,2.05,1.8,3.82,3.41,5.31,2.86,2.86,7.56,5.02,11.67,4.83s8.69-1.59,11.67-4.83l2.58-3.34c1.49-2.57,2.24-5.35,2.25-8.33,1.37-13.67,.49-27.26-1.68-40.8s-6.45-26.38-11.97-38.89-12.35-22.78-20.43-33.06c-6.94-8.83-14.94-16.83-23.75-23.79-11.02-8.71-22.67-16.23-35.63-21.74-1.89-1.21-3.94-1.86-6.13-1.96-2.19-.49-4.39-.39-6.58,.29-3.83,1.05-7.98,4.01-9.86,7.58-2.02,3.83-3.04,8.47-1.66,12.71l1.66,3.94c1.47,2.48,3.44,4.45,5.92,5.92h0Z"/>
  </g>
  <g id="Layer_2" data-name="Layer 2">
    <g>
      <g>
        <path d="M424.64,168.96c-19.21-26.56-32.24-37.1-75.23-93.27-.1-.14,1.79-2,1.37-2.52-.88-1.08-.3-.62-1.18-1.7-.49-.56-2.59,.57-2.95,.35-.37-.23-2.02-.15-3.14-.28-.19-.02-1.35-1.4-2-1.3-1.19,.18-1.14,.2-1.65,.6-1.76,1.43-4.52,2.43-5.33,4.54-.92,2.41-5.44,5.86-8.06,7.98-1.15,.93-1.81,2.24-1.95,3.6-.22,2.16,.94,3.65,1.17,3.93,2.29,2.82,4.58,5.65,6.88,8.47,.72,.88,1.43,1.76,2.15,2.64,21.72,26.75,43.45,53.51,65.17,80.26,.05,.06,.09,.11,.13,.15,.08,0,.17,0,.25,0,.15-.04,.3-.08,.45-.12,.24-.06,.56-.09,.89-.12,.02-.01,.04-.03,.07-.04,.21-.13,.41-.27,.62-.4,.52-.29,1.08-.5,1.58-.7,.29-1.13,.88-2.05,1.78-3,1.14-1.19,1.41-2.44,3.48-2.96,2.3-.58,7.06-.79,7.71,2.3,.11,.5,.09,1,.03,1.49,0,.01,0,.02,.01,.03,.27,1.11,.33,2.17,.33,3.3,0,.06,0,.11,0,.17,2.14-1.94,4.12-3.83,6.65-5.88,1.15-.93,1.81-2.24,1.95-3.6,.16-1.57-.5-3.01-1.17-3.93Z"/>
        <path d="M348.58,150.56c.91-.13,1.97-.16,2.98,.01-6.19-8.25-4.3-7.67-3.49-10.71,.26-.98,1.36-2.26,4.15-4.34,1.44-1.08,2.83-2.64,4.59-2.55,4.51,.21,5.57,2.76,5.93,2.52-3.96-4.65-7.92-9.3-11.89-13.95-.83,.7,.69,3.94,.48,5-.73,3.59-4.01,5.85-5.07,6.75-1.5,1.28-2.67,2.27-4.79,3.27-1.59,.75-2.79,.21-3.67,2.04-.47,.97,2.18,3.83,3.51,5.39l5.83,6.96c.57-.21,1.11-.34,1.43-.39Z"/>
        <path d="M375.4,158.91c.99,.88,2.02,1.74,3.05,2.61,1.23-1,2.22-1.81,2.23-1.81-2.18-2.56-4.12-4.52-6.3-7.08-.28,.25-1.98,1.78-3.69,3.31,1.69,.72,3.28,1.71,4.71,2.98Z"/>
        <polygon points="382.12 161.72 358.6 132.52 360.01 131.32 384.32 159.85 382.12 161.72"/>
        <path d="M353.76,151.36c.44,.28,.83,.62,1.13,1.06,.26,.39,.52,.79,.79,1.2,.89,.35,2.24,.69,4.59,1.26,.88-.21,1.78-.28,2.38-.31,3-.16,5.91,.37,8.55,1.59,.33-.28,.65-.56,.98-.84,0,0,2.57-2.19,2.59-2.21,.68-.58,1.37-1.16,2.05-1.75-.84-.99-1.68-1.98-2.53-2.97-1.08-1.27-2.16-2.53-3.24-3.8-.71-.83-1.41-1.66-2.12-2.49-.39,.35-.41,.92-1.14,1.52-1.16,.94-.84,2.17-1.68,2.79-2.14,1.58-2.11,2.61-4.34,3.16-1.95,.48-4.53,.08-5.54-.15-1.12-.25-1.86,.05-2.24,.55,.44,.52,.02,.95-.23,1.39Z"/>
        <path d="M366.94,229.89c-.74-2.16-1.19-4.41-1.9-6.58-.34-1.05-.77-2.06-.99-3.15-.11-.57-.04-1.22-.35-1.71-.13-.2-.2-.39-.23-.57-.51-.97-.94-1.97-1.28-3.02-.45-1.41-.66-2.78-1.42-4.08-1.5-2.57-3.44-4.86-4.89-7.49-1.47-2.68-3.02-5.39-3.91-8.32-.3-1-.47-2.06-.71-3.08-4.6,8.13-7.25,12.82-8.14,13.61-2.47,2.23-2.49,2.75-2.6,3.3-.24,1.11,.82,1.75,1.39,2.73,1.6,2.74-1.7-.23-2.94-1.69-.27-.31-4.41,1.81-2.38,4.19,3.16,3.71,4.8,6.27,7.97,9.99,4.69,5.5,6.51,7.95,11.19,13.46,1.46,1.72,3.98-.41,3.61-4.19-.04-.4,.17-.61,.42-.6,1.48,.06,1.11,1.98,4.44,2.98,1.38,.42,3.42,.9,4.69-.21,.13-.11,.25-.22,.38-.34-.87-1.72-1.75-3.44-2.36-5.24Z"/>
        <path d="M388.27,165.24c-2.59-2.94-5.73-6.45-9.34-10.41-1.73-1.9-4.66-2.08-6.62-.42-.54,.46-1.12,.95-1.73,1.46,1.74,.72,3.37,1.73,4.82,3.03,2.8,2.51,5.93,4.82,8.52,7.55,1.3,1.38,2.49,2.89,3.74,4.32,1.3,1.48,2.19,3.17,3.35,4.75,1.04,1.42,2.22,2.92,3.46,4.17,.16,.16,.84,.96,1.34,1.42,.27,.1,.54,.21,.8,.32,.47,.21,.88,.46,1.29,.73,.54,.08,1.07,.15,1.5,.19,.03,0,.51,.04,.87,.05,.15-.04,.3-.08,.45-.12,.24-.06,.56-.09,.89-.12,.02-.01,.04-.03,.07-.04,.21-.13,.41-.27,.62-.4,.52-.29,1.07-.49,1.57-.69,.22-.85,.61-1.58,1.17-2.28-5.56-6.34-9.02-4.73-16.76-13.52Z"/>
        <rect x="374.41" y="150.87" width="3.5" height="4.53" transform="translate(248.81 -232.52) rotate(49.57)"/>
      </g>
      <text class="cls-2" transform="translate(391.42 78.52) rotate(52.12)"><tspan x="0" y="0">AVROTEES</tspan></text>
    </g>
  </g>
  <g id="Layer_3" data-name="Layer 3">
    <g>
      <path d="M491.09,273.51c-.41-.51-3.19-1.04-6.15-2.73-1.42-.81-2.78-3.79-5.12-3.76-.39,0-1.61,.02-3.21-.32-.37-.08-.77-.19-1.23-.36-2.31-.87-3.08-2.09-5.12-3.42,0,0-2.13-1.38-6.49-2.39-3.65-.84-9.75,1.21-16.9,5.86-.14,1.83-2.38,3.46-3.7,4.65-.57,.51-2,.54-3.03,.25-.04,.03-.07,.06-.11,.09-1.12,1.49-2.68,2.9-3.37,3.52-.98,.87-2.06,1.56-3.14,2.24-1.07,1.03-2.15,2.1-3.23,3.22-2.27,2.35-4.24,4.77-5.92,7.12-.06,.23-.13,.46-.19,.68-.41,1.42-.96,3-2.39,3.7-.12,.06-.25,.11-.37,.15-3.05,5.18-4.6,9.58-4.8,11.57-.47,4.7,2.73,9.22,3.07,11.62,.22,1.57-2.52,.31-4.44,1.71-2.98,2.18-3.18,7.29-2.39,10.59,.61,2.58,2.18,5.53,4.1,6.83,5.13,3.47,12.69-.3,16.2-2.05,8.35-4.17,12.65-10.93,13.86-12.98,4.92-8.28,1.78-11.31,5.81-22.55,5.27-14.69,15.72-23.92,21.86-26.99,1.37-.68,3.42-2.05,5.47,1.37,2.69,4.48,7.31,2.51,8.88,4.1,.3,.3-51.97,5.41,3.42,5.47,.57,0,.98-.61,1.02-.68,1.24-1.92-1.97-5.97-2.39-6.49Zm-19.19-6.39c-2.39,1.67-4.72,3.6-7.39,4.83-.12,.06-.24,.11-.37,.16-.01,.04-.02,.07-.04,.11-.44,.74-.97,1.4-1.53,2.03-.37,2.22-1.87,4.44-3.21,6.07-.78,.95-1.89,1.59-2.83,2.38-.15,.27-.31,.53-.46,.79-.47,.79-.95,1.57-1.42,2.36-.11,.3-.2,.6-.29,.9-.11,.57-.21,1.15-.35,1.7-.1,.39-.59,.62-1.13,.69-.09,.19-.18,.38-.26,.57-1.04,2.44-.77,4.79-1.13,7.34-.31,2.23-1.36,4.29-1.61,6.53-.22,2.02,.12,4.06-.29,6.06-.43,2.09-1.59,3.54-3.08,4.73,0,.02-.01,.04-.02,.05-2.74,4.02-5.15,8.17-9.26,11.02-4.14,2.87-8.53,5.31-13.53,6.2-1.9,.34-3.84,1.34-5.75,1.45-1.32,.07-2.67-.49-3.31-1.7-1.82-3.41,2.76-3.59,4.88-3.46,.81,.05,1.77,.2,2.56-.03,1.23-.35,1.61-1.56,2.58-2.23,.55-.39,1.22-.58,1.86-.77,1.14-.34,2-.79,3.05-1.34,2.2-1.15,4.65-1.73,6.85-2.91,1.67-.9,2.2-1.49,2.96-3.14,.83-1.81,2.67-2.24,4.19-3.31,1.42-1,2.55-2.27,3.1-3.88-2.43-.27-4.45-.24-6.85,.56-1.63,.54-3.3,1.23-5.05,.99-1.57-.22-2.89-1.1-4.07-2.11-1.24-1.07-2.65-2.09-3.67-3.37-.66-.83-1.27-1.65-2-2.41-.26-.27-.51-.54-.72-.83,.02,1.51,.35,3.07,.68,4.49,.46,2.01,1.39,3.78,3.32,4.7,.23,.11,.33,.24,.36,.37,.49,.28,.65,.69-.25,.98-2.33,.75-6.49,1.65-8.29-.66-.69-.88-.81-2.08-1-3.15-.3-1.67-.74-3.36-.76-5.06-.02-1.68,.46-3.08,1.09-4.61,.59-1.42,.83-2.9,1.26-4.37,.73-2.51,2.68-4.95,4.93-6.28,.04-.02,.08-.05,.12-.07,.93-2.11,2.38-4.23,4.42-5.39,.22-.25,.45-.48,.72-.71,1.15-.97,2.43-1.54,3.36-2.77,.74-.98,1.4-1.86,2.52-2.43,1.21-.62,2.57-.68,3.83-1.15,1.62-.61,2.74-2.01,4.11-3,2.6-1.89,5.67-3.09,8.61-4.34,2.8-1.19,5.46-2.71,8.48-3.29,2.93-.56,5.96-.53,8.92-.35,.32,.02,2.05,.46,1.18,1.07Z"/>
      <path d="M368.44,316.9c.2-.41,3.29,1.2,4.44,0,.23-.24,.47-.68,.34-1.02-.49-1.27-5.41,.91-9.22-.34-4.7-1.55-7.12-8.11-7.52-12.64-.81-9.39,6.37-18.57,9.22-17.77,1.84,.52,2.39,5.34,2.3,10.39,.22-.37,.99-.47,1.3-.47,1.61,.05,3.26,.09,4.86-.04,1.18-.1,2.28-.29,3.43-.27,.38-.22,.76-.44,1.18-.62,.13-.06,.43-.09,.78-.08,.2-.19,.37-.43,.49-.74,.09-.24,.36-.4,.7-.48-.4-.32-.8-.59-.88-.63-.76-.39-1.55-.7-2.32-1.05-1.43-.65-2.61-1.41-3.62-2.63-1.99-2.41-2.69-5.1-3.76-7.87-1.07-.63-1.87-1.36-2.61-2.36-.86-1.16-2.01-1.77-2.98-2.81-1.9-2.03-2.92-4.64-4.22-7.06-1.38-2.57-3.06-4.89-3.46-7.86-.09-.7,1.39-.73,1.73-.69,1.15,.16,1.49-.43,1.73-1.2-.19-.02-.36-.06-.48-.13-1.84-1.03-3.64-1.29-5.19-2.84-1.42-1.43-2.46-3.13-3.11-5.03-.63-1.84-1.35-4.38-.89-6.43-.46-.69-.8-1.52-1.15-2.16-1.14-2.11-2.19-4.29-3.51-6.3-.1-.16-.21-.32-.32-.48-.2-.25-.4-.49-.59-.74-.36-.31-.72-.62-1.05-.99-.19-.22-.21-.41-.11-.56-1.17-1.54-2.42-3.01-3.59-4.55-1-1.33-2.1-2.89-1.78-4.61-.46-.35-.72-.82-.85-1.38,.13,2.73,.62,5.14,1.66,7.68,3.15,7.71,7.45,7.05,8.88,14.35,.73,3.71,.37,7.7,3.42,11.96,1.37,1.91,1.59,1.31,2.73,3.07,2.93,4.53,1.06,7.82,4.1,12.3,.93,1.36,1.47,1.61,1.71,2.73,.6,2.81-1.92,5.36-3.07,6.83-4.73,6.02-3.2,15.03-2.05,21.86,.59,3.5,2.22,13.12,7.17,14.35,1.9,.47,2.6-.7,4.78,0,4.29,1.39,5.69,7.28,7.17,6.83,.41-.12,.63-.67,.68-1.02,.42-2.7-6.8-5.87-6.49-6.49Z"/>
      <path d="M425.09,285c-.2,.59-.38,1.19-.54,1.79l1.17-1.94c-.18,.08-.4,.13-.63,.15Z"/>
      <path d="M423.53,267.67c-.7-.51-1.15-1.15-1.41-2.02-.15-.5-.27-1-.39-1.51-.04-.15-.07-.31-.11-.46,.13,.56,0,.03-.04-.1-.15-.43-.11-.78,.05-1.08-1.32-.32-2.34-1.09-2.33-2.81,0-.9,1.84-.79,2.33-.5,.93,.55,1.67,1.25,2.28,2.05,.1-.02,.2-.04,.3-.06,.02,0,.05,0,.07,0-.66-1.37-.9-2.84-1.53-4.33-.82-1.96-2.43-3.32-3.92-4.77-1.59-1.54-2.8-3.16-3.72-5.18-1-2.21-1.76-4.53-3.09-6.58-2.05-3.16-4.79-5.97-5.86-9.65-.31,.38-.8,.69-1.31,.92-.08,1.17-.15,2.34-.16,3.51,0,.52-.28,.94-.72,1.26,.62,1.11,1.17,2.26,1.66,3.45,1.2,2.93,2,6.08,3.41,8.91,1.21,2.42,3.02,4.49,4.26,6.9,.68,1.32,.86,2.72,1.33,4.1,.74-.31,2.07-.06,2.24,.6,.17,.68,.42,1.34,.67,2,.46,.32,.76,.75,.77,1.28,.02,1.56,.2,3.13,.15,4.69-.02,.66-.11,1.3-.23,1.94-.03,.87-.06,1.74-.04,2.6,.01,.58,.01,1.21,.17,1.78,.02,.08,.07,.26,.12,.43,.04-.15,.24-.31,.4-.55,.78-1.16,1.63-1.71,3.11-1.53,.7,.08,1.41,.36,1.94,.83,.54,.48,.95,1.24,1.57,.14,.65-1.17-.73-3.1-1.21-4.11-.32-.68-.56-1.4-.76-2.15Z"/>
      <path d="M426.22,222.9c-1.13-1.33-2.29-2.61-3.59-3.75-.05-.03-.11-.06-.16-.09-1.73-.94-3.32-1.84-4.8-3.11-.79-.41-1.58-.81-2.37-1.21-1.25-.63-2.77-1.89-4.21-2.34,.27,.53,.54,1.06,.85,1.58,.43,.72,.78,1.43,1.07,2.14,2.95,.97,5.58,2.91,7.82,5.04,1.71,1.62,2.99,3.5,4.37,5.4,.38,.52,.79,.96,1.22,1.35,.12-1.45,.3-2.92-.02-4.36-.05-.23-.11-.45-.19-.66Z"/>
      <path d="M435.11,257.64c-.43-1.84-.67-3.7-1.21-5.51-.42-1.41-.91-2.82-1.13-4.28-.09-.62-.13-1.36-.19-2.15-.02-.02-.04-.04-.06-.06-.63-.18-1.1-.53-1.1-1.05,0-.84-.24-1.54-.59-2.18-.43,.13-.91,.17-1.2,.17-.11,0-.26,0-.42-.02,1.17,2.79,1.58,5.8,2.25,8.78,.82,.98,1.46,1.96,1.86,3.42,.62,2.24,1.73,4.28,2.35,6.52,.49,1.77-3.89,2.01-4.28,.61-.61-2.18-1.58-4.22-2.28-6.37-.59-.13-1.07-.39-1.2-.81-.28-.89-.51-1.81-.71-2.74-.66-.76-1.39-1.48-2.06-2.3-1.33-1.65-2.4-3.42-3.36-5.3-.4-.77-.87-1.47-1.37-2.14-.08,.78-.15,1.57-.18,2.36,0,.12-.03,.22-.08,.32,.42,.89,.99,1.71,1.42,2.58,.62,1.22,1.02,2.54,1.64,3.76,.05,.1,.08,.19,.09,.28,1.33,1.27,2.7,2.58,3.52,4.25,.88,1.79,.87,4.06,2.18,5.64,.03,.03,.04,.06,.07,.09,.32,.1,.65,.22,.97,.37,1.87,.89,3.17,2.53,4.9,3.62,.64,.4,1.32,.61,2.02,.76l1.51-2.49c-2.08-1.28-2.79-3.71-3.36-6.15Z"/>
      <path d="M423.57,233.2c1.17,2.22,2.55,4.37,4.01,6.4,.22,.31,.42,.62,.61,.93,.41-.17,.9-.24,1.25-.25-.41-.63-.76-1.31-.91-2.11-.23-1.25-.22-2.46-.69-3.67-.34-.86-.79-1.66-1.1-2.52-1.51-1.02-3.25-1.69-4.5-3.07-1.5-1.66-2.53-3.7-4.03-5.35-1.2-1.32-2.57-2.52-4.01-3.56-.11-.08-.22-.16-.33-.24,.02,.25,.04,.5,.04,.76,0,.18-.05,.34-.15,.48,.27,.57,.65,1.07,1.18,1.42,1.77,1.18,2.63,2.44,3.66,4.32,.31,.57,.61,1.15,.89,1.73,.19,.06,.37,.12,.54,.2,1.78,.9,2.66,2.83,3.55,4.51Z"/>
      <path d="M373.92,191.96s0-.01,0-.02c0,0,0,0,0,0-.13,.01-.31,.02-.49,0-.26,0-.51,.02-.77,.02-.08,0-.19,0-.31-.03-.05,.01-.1,.02-.15,.02-.35,.18-.73,.32-1.05,.53-1.15,.74-1.88,1.85-2.65,2.93-.06,.08-.16,.16-.28,.23-.06,.48-.15,.96-.16,1.44,0,.01,0,.02,0,.03,.1,.17,.2,.34,.31,.5,.21-.33,.64-.44,1.08-.46,.15-.42,.29-.84,.46-1.26,.3-.72,.67-1.49,1.3-1.99,.63-.5,1.39-.51,2.11-.79,.2-.08,.43-.32,.55-.62,.06-.14,.11-.3,.09-.45,0-.07,0-.03-.02-.09Z"/>
      <path d="M376.58,195.58c-.02-.18-.1-.34-.17-.5-.21,.69-.53,1.33-.85,1.99-.16,.33-.31,.65-.42,.98,.26,.03,.5,.11,.69,.24,.44-.86,.88-1.73,.75-2.71Z"/>
      <path d="M373.85,196.96c.39-.81,.85-1.6,1-2.49,.03-.17,.16-.28,.31-.35-.04-.15-.07-.3-.1-.43-.02-.08-.05-.16-.08-.24-.61,.51-1.48,.51-2.1,.79-.73,.33-1.1,1.3-1.38,1.99-.16,.39-.29,.79-.43,1.19,.79,.17,1.59,.34,2.35,.57,.12-.35,.26-.7,.43-1.03Z"/>
      <path d="M422.39,210.81c-.14-.1-.28-.21-.42-.31,0,0-.02,0-.03-.01-1.53-.8-1.96-1.96-2.78-3.38-.92-1.61-2.55-2.78-3.87-4.06-2.58-2.51-5.73-4.55-8-7.34-1.01-1.25-2.23-2.72-2.64-4.29-.42-1.59,.07-3.09,.39-4.65,.34-1.63,.02-3.65,.92-5.1,.84-1.34,2.3-2.27,3.38-3.41,1.01-1.06,5.26-.33,3.83,1.17-.75,.78-1.92,1.55-2.65,2.49,.1,.12,.17,.26,.21,.41,.23,.9,.75,1.7,1,2.6,.05,.18,.09,.36,.12,.54,.02-.13,.09-.25,.22-.35,.11-.08,.23-.15,.36-.2-.06-.09-.11-.18-.16-.27-.13-.26-.25-.51-.43-.75-.06-.06-.11-.13-.17-.19-.1-.1-.14-.21-.09-.34,.06-.15,.26-.22,.39-.27,.2-.07,.45-.07,.66-.04,.16,.02,.39,.08,.51,.2,.26,.26,.48,.56,.65,.89,.11,.22,.21,.44,.35,.63,.08,.1,.17,.19,.27,.27,.06,.06,.1,.13,.11,.2,0,0,0,.01,0,.02,.07,.39,.1,.88-.23,1.16-.25,.21-.62,.28-.94,.27-.29,0-.58-.06-.83-.21-.25-.14-.49-.35-.62-.62,0,0,0,0,0,0,.06,.49,.07,.99,.09,1.49,.02,.41,.06,.75,.14,1.08,1.24-.42,3.21-.03,3.44,1.04,.33,1.58,.31,3.2,.59,4.78,.15,.85,.46,1.65,.74,2.46,.25-.04,.49-.06,.67-.06,.63,0,2.22,.22,2.22,1.15,0,.16-.05,.31-.13,.43,.37,.18,.66,.44,.66,.84,0,.2-.07,.37-.19,.51,.3,.17,.51,.42,.51,.76,0,.32-.18,.56-.45,.73,.52,.17,.97,.46,.97,.96,0,.07-.01,.14-.03,.2,.52,.17,.98,.46,.98,.96,0,.33-.19,.56-.46,.74,.42,.13,.75,.34,.91,.64,.59,1.13,1.11,2.33,1.87,3.36,.76,1.03,1.71,1.53,2.74,2.15-1.1-1.15-2.15-2.58-3.07-4.59-.74-1.6-1.61-4.01-3.76-7.17-1.74-2.56-2.38-2.74-3.07-4.44-1.19-2.91-.13-4.34-.34-8.54-.12-2.43-.41-8.38-3.42-9.57-2.02-.8-4.96,.68-6.49,2.39-1.45,1.62-1.18,2.93-2.73,4.1-1.7,1.29-3.86,1.1-4.78,1.02-5.23-.45-10.21-6.87-14.35-11.62-2.44-2.8-16.77-19.19-22.89-16.4-1.6,.73-1.89,2.43-3.42,2.39-2.83-.08-3.17-5.99-7.17-7.17-2.26-.67-5.12,.34-6.15,2.05-.87,1.44,.18,2.36-.34,5.12-.14,.72-.32,1.26-.53,1.72,.84-.4,2.62-.09,2.26,.72-.19,.41-.21,.91-.22,1.36,.55,.25,1.24,.81,.89,1.48-.44,.85-2.01,.8-2.71,.44-.98-.51-1.08-1.87-.83-2.94-.58,.82-1.14,1.38-1.25,2.7-.27,3.37,3.01,4.75,2.39,7.52-.38,1.7-1.81,2.03-3.07,3.42-3.37,3.69-.79,9.63-.34,16.74,.43,6.91-1.72,5.83-3.07,17.77-.55,4.89-.98,8.65-1.01,11.89,.13-1.08,.44-2.17,.6-2.97,.73-3.56,1.82-7.05,2.57-10.61,.34-1.6,.78-3.17,1.29-4.73,.49-1.49,.76-3.04,1.28-4.52,.92-2.62,.67-5.9,2.04-8.34,.45-.8,2.92-.54,2.67,.28,.17,.11,.29,.26,.31,.45,.27,1.87,1.39,3.54,1.75,5.41,.33,1.7,.23,3.44-.23,5.1-.32,1.17-.79,2.42-1.86,3.1-.51,.33-1.06,.43-1.66,.49-.07,0-.12,0-.18,0-.07,.09-.14,.19-.23,.28-.1,.1-.25,.18-.43,.23-.06,.39,.24,.6,.58,.71,.92,.3,1.87-.21,2.63,.68,.57,.66,.58,1.83,.62,2.65,.07,1.4,.03,2.79,.02,4.19,0,1.28,.27,2.65-.06,3.9-.29,1.08-.95,2.11-1.8,2.93,.21,.17,.25,.4,0,.67-.26,.27-2.45,2.66-1.1,3.05,.43,.12,1.64-1.53,1.92-1.79,.59-.54,1.76-.45,2.36,0,4.22,3.17,7.88,9.33,6.62,14.75-.23,1-.59,1.99-.67,3.02-.03,.45-.1,.82,.21,.91,.51,.14,1.54-1.37,1.76-1.72,.7-1.15,.93-2.52,1.52-3.73,.67-1.35,1.56-2.54,2.59-3.63,.54-.57,2.35-.54,2.55,.36,.28,1.27,.32,2.56,.54,3.84,.23,1.31,.76,2.52,1.13,3.79,.7,2.39,.97,5,1.08,7.48,.05,1.09,.22,2.28-.18,3.33-.37,.97-1.19,2-1.86,2.77-.58,.67-1.29,1.16-2.02,1.65-.57,.38-1.5,.78-2.15,1.28,0,0,.01,.02,.02,.03,.81,.19,1.59,.27,2.39,.11,.26-.22,.51-.44,.76-.59,.44-.28,.9-.53,1.37-.76,.54-.54,1.08-1.05,1.84-1.3,.6-.2,1.32-.29,1.94-.1,.8,.03,1.74,.61,1.14,1.1,.41,.63,.94,1.09,1.45,1.66,1.83,2.05,3.5,4.43,4.73,6.9,.61,1.23,.95,2.57,1.53,3.8,.53,1.13,1.4,1.82,2.12,2.78,.58,.77,.58,1.53,.61,2.48,.03,1.04,.22,2.21-.17,3.21-.48,1.22-1.91,1.59-2.83,2.44-.18,.16-.34,.34-.5,.52,1.6-.43,2.43-1.28,3.45-2.69,.66-.92,1.5-1.75,1.92-2.82,.32-.82,1.98-.55,2.5-.17,1.02,.74,2.22,1.4,2.61,2.69,.4,1.34,.09,3.16-.23,4.5-.18,.77-1.6,3.1-1.82,4.51,.31-.14,.59-.34,.81-.71,.39-.65,.5-1.49,.82-2.17,.4-.86,3.08-.59,2.64,.38-.45,.98-.59,2.18-1.36,2.98-.75,.78-1.83,.76-2.72,1.21-.11,.09-.24,.17-.36,.22-.41,.3-.73,.63-1.18,.88-.37,.21-1.19,.42-1.39,.8-.16,.3-.09,.49,.11,.62,1.39-.41,2.88-.66,4.17-1.23,.02,0,.03-.01,.05-.02,1.84-1.8,2.61-4.38,5.08-5.56,1.1-.52,3.49-.94,3.83,.72,.27,1.29-.78,3.56-1.67,4.42-1.83,1.75-4.85,2.34-7.08,3.39-.79,.37-2.35,.97-2.93,1.69-.42,.32-.26,.35,.49,.08,.41-.01,.82-.03,1.23-.06,.74-.02,1.45,0,2.18,.07,.1,.01,.19,.03,.27,.04,.97-.37,1.95-.57,2.86,.29,.24,.23,.42,.51,.55,.81,.15-.26,.27-.57,.35-.97,.15-.67,.28-1.16,.77-1.66,.61-.63,1.31-.97,1.84-1.7,.46-.62,.78-1.19,1.42-1.65,.51-.36,1.27-.47,1.87-.25,.34,.13,1.03,.59,.49,.97-.83,.58-1.16,1.53-1.87,2.23-.74,.73-1.52,.96-1.79,2.06-.21,.86-.25,1.5-.96,2.13-.64,.57-1.47,.91-2.28,1.19-.12,.21-.27,.4-.45,.57-.27,.25-.59,.43-.92,.59-.55,.96-1.56,1.76-2.69,2.33-.25,.37-.51,.73-.84,1.04-1.66,1.54-3.54,3.18-5.62,4.11-1.03,.46-2.09,.68-3.19,.88-1.13,.21-1.98,.65-2.99,1.15-1.29,.64-2.96,1.18-4.23,.18-1.26-1-1.62-2.91-2.13-4.35-.64-1.85-1.68-3.58-1.93-5.54-.17,5.67-1.12,11.38-1.94,11.44-.92,.07-2.18-6.94-2.73-6.83-.53,.11,.7,6.52-.34,6.83-1,.3-3.16-5.34-3.76-5.12-.56,.2-.59,5.8,2.39,8.2,5.21,4.2,17.91-2.73,24.6-7.52,10.11-7.24,14.75-15.51,16.06-14.69,1.4,.88-3.34,10.74-4.1,12.3-7.34,15.11-14.19,20.36-12.98,21.86,2,2.5,24.99-6.87,28.7-20.5,.55-2.02,1.77-8.14,3.76-8.2,.71-.02,1.32,.74,1.71,1.37l2.04-3.36c-1.29,.45-2.64,.07-3.81-.59-1.35-.76-2.19-2.13-3.49-2.9-.12-.03-.23-.06-.34-.09-.49-.14-.92-.35-1.31-.59-1-.35-1.87-.69-2.77-1.5-1.09-.98-2.09-1.92-3.19-2.82-1.36-.64-2.82-1.2-4.13-1.77-2.8-1.21-5.39-2.7-7.6-4.82-1.06-1.02-2.03-2.12-2.97-3.24-2.52-1.49-4.85-3.94-6.37-6.37-.17-.27-.34-.53-.5-.78-.54-.48-1.07-.97-1.59-1.49-.61-.6-1.17-1.25-1.71-1.91-1.15-.76-2.05-1.58-2.73-2.8-.91-1.63-1.4-3.41-2.41-4.99-.89-1.39-1.8-2.68-2.36-4.22-.21-.4-.41-.81-.59-1.22-.41-.94-.62-1.89-.78-2.86-.25-.63-.51-1.27-.81-1.91-.71-1.54-1.37-3.09-1.8-4.74-.45-1.72-.46-3.44-.66-5.19-.23-.84-.42-1.68-.51-2.55-.7-.54-1.3-1.3-1.93-2.21-1.78-2.56-2.72-5.57-3.57-8.55-.85-3.01-1.47-6.06-2.82-8.9-1.35-2.85-2.61-5.78-4.01-8.6-1.29-2.59-3.05-5.03-4.16-7.69-.58-1.39-.98-2.84-1.78-4.13-.36-.58-.72-1.07-.95-1.72-.22-.63-.3-1.16-.69-1.72-.16-.23-.05-.43,.2-.57-.26-.43-.53-.86-.73-1.34-.45-1.1-.39-2.22-.18-3.37,.19-1.02,2.89-.88,2.73,0-.19,1.05-.23,1.97,.09,2.9,.56-.15,1.32-.1,1.77,.28,.23,.2,.85,.19,1.15,.33,.3,.14,.61,.34,.77,.65,.17-.19,.34-.38,.51-.56,.12-.12,.3-.2,.52-.25,.18-.06,.4-.1,.66-.1,.46,0,.79,.11,.99,.27,.36,.18,.51,.45,.19,.79-.31,.33-.65,.77-1,1.22,.53,.62,1.02,1.27,1.7,1.74,.61,.42,1.37,.71,1.72,1.41,.18,.36,.23,.74,.22,1.13,.21,.11,.37,.27,.37,.5,0,.34-.04,.7,.02,1.03,.72,.19,.87,.73,.45,1.07,.97,.23,.94,1.1-.06,1.31-.02,.06-.03,.12-.05,.17,.13-.03,.26-.04,.42-.04,1.56,0,1.63,1.26,.26,1.4,.02,.14,.04,.23,.1,.37,.02,.06,.05,.12,.07,.19,.08,.03,.15,.07,.22,.11,.2-.09,.46-.15,.79-.15,1.61,0,1.63,1.34,.13,1.41,.09,.1,.19,.19,.28,.29,.17-.05,.37-.08,.61-.08,1.5,0,1.62,1.17,.4,1.39,.03,.06,.06,.12,.09,.19,.07,0,.15-.01,.23-.01,1.51,0,1.62,1.18,.39,1.38,.44,.03,.89,.16,1.1,.51,.32,0,.64-.03,.96-.04,.37,0,1.28,.13,1.36,.63,.03,.08,.02,.16-.02,.24-.05,.14-.17,.25-.32,.33-.67,.53-1.41,.74-2.26,.92-.99,.21-1.35,.43-1.3,1.51,.04,.88,.21,1.88,.82,2.56,.05,.05,.1,.09,.15,.14,.15-.17,.39-.29,.58-.38-.35-.52-.64-1.08-.87-1.63-.42-1.01,2.28-1.24,2.64-.38,.24,.57,.55,1.13,.91,1.65,.04-.11,.08-.22,.12-.33,.07-.23,.42-.35,.63-.42,.18-.06,.38-.09,.58-.09-.2-.87-.81-1.86-1.15-2.34-.56-.8,2.09-1.16,2.64-.38,.71,1.02,1.8,3.09,1.09,4.33-.18,.31-.51,.49-.86,.64-.26,.32-.56,.56-.9,.74,.43,.44-.08,.8-.5,.96-.35,.13-.59,.54-.58,.9,0,.17,.05,.34,.17,.47,.13,.14,.17,.13,.32,.15,.19,.02,.45,.11,.66,.23,.08-.21,.19-.41,.38-.58,.31-.3,.54-.41,.7-.72,.45-.84,3.12-.54,2.64,.38-.13,.25-.3,.44-.48,.62,.3,.05,.58,.16,.76,.33,.44,.41-.02,.76-.41,.94,0,0-.02,.02-.03,.04,0,0-.05,.06-.06,.06-.06,.09-.1,.19-.12,.27-.03,.13-.02,.26,0,.39,.17,.01,.33,.05,.49,.09,.39,.11,.99,.59,.49,.97-.11,.09-.21,.18-.31,.28-.01,.01-.02,.02-.03,.03,0,0,0,0-.01,.02-.03,.04-.06,.09-.09,.13-.06,.11-.11,.2-.14,.28,.5-.05,1.05,.03,1.42,.34,.16,.14,.23,.35,.14,.55-.05,.11-.16,.2-.28,.27,.62-.13,1.45-.03,1.79,.3,.55-.06,1.15,0,1.41,.26,.44,.42,.81,.91,1.18,1.4,.09-.03,.16-.04,.22-.05,.26-.04,.56-.04,.84,.02-.04-.2-.09-.41-.13-.61-.35-1.51-.88-2.91-1.78-4.16-.39-.24-.77-.47-1.14-.71-2.03-1.35-3.26-3.34-4.19-5.56-1.03-2.48-1.59-5.21-3.39-7.29-1.63-1.89-3.99-3.05-5.39-5.12-1.12-.63-1.81-2.26-2.22-3.83-.37-.43-.73-.86-1.01-1.29-.98-1.49-1.76-3.1-2.4-4.77-.63-1.64-1.4-3.23-2-4.87-.54-1.47-1.4-2.98-1.47-4.57-.29-.32-.6-.63-.9-.93-.15-.03-.31-.04-.51-.05-1.11-.03-2.2-.03-3.3-.23-.19-.03-.33-.08-.46-.13-.89-.2-1.56-.75-2.1-2.05-.37-.91-.69-1.89-1.11-2.77-.24-.5-.58-.93-.7-1.49,0-.05-.01-.09-.02-.14-.11-.26-.22-.52-.3-.79-.02-.07-.04-.15-.06-.22-.19-.17-.31-.38-.16-.58-.24-.95-.41-1.91-.48-2.88-.07-.96,2.63-1,2.73,0,.07,.69,.7,1.77,.67,2.61,.17,.32,.25,.65,.31,1,.11,.04,.21,.1,.28,.17,.72,.73,1.19,2.12,2.31,2.16,.62,.02,2.41-.19,2.83-.66,.38-.42,2.74-.56,2.55,.36-.05,.23-.07,.46-.06,.69,.5,.39,.79,.92,1.15,1.46,.61,.9,1.44,1.59,2.14,2.41,.49,.57-.09,.88-.75,.99,.1,.07,.2,.13,.31,.19,.17,.09,.13,.08,.36,.13-.22-.05,.34,.03,.16,.02,.38,.02,1.38,.12,1.37,.71,0,.25-.2,.43-.45,.54,.02,.06,.03,.11,.03,.18-.01,.17-.02,.33,0,.49,.89-.31,2.46,.02,2.11,.78-.16,.36-.45,.63-.8,.81,0,.05,0,.11,0,.16,0,0,0,.01,0,.02,.12-.01,.23-.03,.35-.04,.2-.02,.41-.04,.61-.05,.2-.02,.41-.02,.61,0,.45,.05,1.16,.2,1.15,.69,0,.28-.24,.46-.52,.57-.02,.04-.05,.08-.06,.12-.08,.17-.12,.34-.13,.52-.01,.12,.02,.25,.03,.37,.18,0,.36,0,.54,0,.42-.01,.83-.02,1.25,.02,.38,.03,1.21,.34,.95,.87-.09,.19-.27,.31-.47,.39-.05,.14-.1,.29-.13,.42,.64,.08,1.29,.11,1.9,.24,.53,.12,.94,.71,.41,1.04,.47,.09,.93,.31,1.28,.59,.53,.43-.06,.78-.51,.95,.36,.4,1.38,.58,1.71,.82,.52,.37,.78,.81,.6,1.45-.01,.04-.03,.07-.05,.11,.3-.01,.61-.03,.91-.01,.53-.01,1.08,.08,1.51,.39,.4,.29,.6,.74,.82,1.17,.14,.28,.29,.53,.37,.83,.04,.13,.06,.26,.09,.39,.01,.05,.03,.1,.05,.15,.19,.02,.38,.06,.53,.11,.35,.12,.54,.36,.68,.69,.47,1.08,.15,2.19-.33,3.2-.44,.95-1.11,1.94-.97,3.03,.06,.42-.82,.56-1.34,.37,0,.14,.04,.11,.13,.15,.17,.07,.53,0,.73,0,.12,0,.25,0,.37,0,.14-.22,.23-.38,.34-.65,.25-.62,.7-.87,1.07-1.41,.55-.79,3.19-.42,2.64,.38-.21,.31-.47,.55-.69,.82,.04,.06,.06,.12,.08,.19,.05,.23,.1,.46,.16,.68,.51-.13,1.08-.09,1.54,.14,.49,.24,.5,.77,0,1-.27,.13-.51,.28-.76,.43,.17,.2,.36,.36,.54,.54,.51-.13,1.07-.12,1.53,.13,.45,.24,.53,.78,0,1-.28,.12-.56,.2-.85,.26,.15,.1,.32,.27,.29,.43-.01,.08-.03,.16-.02,.25,.09,0,.19,.02,.28,.03,.37,.04,1.22,.34,.95,.87-.11,.22-.41,.36-.63,.42-.03,0-.06,.01-.09,.02,0,0,0,0,0,0,.03,.08,.01,.04,0,0,0,0,0,0,0,0,0,0,0,0,0,0,0,.02,.01,.05,.02,.07,.03,.09,.06,.18,.1,.27,.04,.1,.08,.2,.13,.29,.15,0,.29,0,.41,.02,.35,.04,1.26,.35,.95,.87-.14,.25-.35,.44-.59,.58,.11,.1,.19,.22,.22,.37,.01,.21,.06,.41,.15,.59,.67-.16,1.6-.05,1.87,.45,.16,.11,.28,.25,.31,.46,.07,.46,.02,.92,.03,1.38,.41,.04,.8,.18,1.04,.36,.43,.33,.78,1.42,1.12,2.15,.57-.04,1.21,.11,1.46,.37,1.12,1.12,2.22,1.88,3.44,2.43,.13-.63,.36-1.14,.37-1.7-.47-.21-.89-.51-1.28-.87-1.57-1.46-1.95-3.23-2.95-5.02-1.06-1.89-2.27-3.74-3.4-5.59-.94-1.54-1.24-3.13-1.77-4.76-.63-.98-1.25-1.95-1.92-2.91-.77-1.1-2.08-2.37-2.32-3.78-.42-.24-.78-.61-1.05-1.04-.31-.02-.57-.07-.68-.13-2.29-1.16-3.54-3.85-5.13-5.77-1.91-2.32-4.03-4.55-6.22-6.62-1.14-1.07-2.48-1.97-3.67-3-.2-.02-.39-.07-.52-.16-.9-.58-1.62-1.4-2.23-2.27-.39-.55-.84-1.29-.86-2-1.31-1.3-2.43-2.78-3.22-4.47-.5-1.08-.68-2.27-1.19-3.34-.14-.3-.82-1.58-.99-1.84-2.15,.52-4.56,.21-5.87-1.19-.62-.67-.81-1.5-1.09-2.34-.34-1.02-1.01-1.83-1.41-2.81-.34-.83-.42-1.82-.05-2.67,.39-.91,1.28-1.41,1.79-2.23,.5-.82,3.16-.48,2.64,.38-.65,1.06-1.89,1.67-1.94,3.04-.04,1.26,.92,2.2,1.39,3.3,.5,1.18,.51,2.79,2.01,3.17,1.56,.4,3.35-.48,4.01-1.91,.39-.86,3.08-.59,2.64,.38-.03,.07-.07,.13-.1,.2,1.2,1.02,1.73,2.7,3.11,3.49,.48,.28,.51,.74,0,1-.33,.17-.68,.37-.94,.64-.18,.19-.31,.6-.46,.82,.04,.02,.07,.04,.11,.06,.22-.06,.45-.12,.67-.15,1.12-.16,2.39,0,3.41,.48,1.16,.56,1.91,1.52,2.72,2.48,.45,.53,.92,1.01,1.42,1.5,.35,.34,.35,.3,.58,.65,.51,.78,.29,.47-.33,.56,.29-.04,2.24,.14,1.68,.87-.03,.14-.09,.23-.19,.26,.61-.03,2.48,.18,1.84,.88,.03,0,.06,0,.09,0,1.26,.01,1.92,1.2,.36,1.4-.08,0-.16,.02-.24,.04,.26,.05,.05,.28,.45,.43,.38,.14,.66,.09,1.05,.02,.93-.16,2.64,.93,1.05,1.3-.17,.13-.24,.32-.22,.55,.21-.09,.42-.16,.64-.22,.34-.09,2.58-.08,2.01,.8-.36,.56-.29,1.04,.43,1.11,.42,.04,1.33,.46,.88,.98,.15-.01,.3-.02,.45,0,.3,.03,1.05,.25,1,.69-.12,1.19-1.57,1.82-2.08,2.9-.22,.46-.4,1.01-.48,1.55,.52-.22,1.23-.25,1.68,0,.68-.22,1.59-.09,1.96,.44,.29,.42,1.29-.04,1.86-.09,.54-.05,1.15-.06,1.66,.16,.68,.29,.86,.7,.47,1.25,.18,.13,.23,.3,.1,.5-.61,.85-2.24,1.28-3.4,1.89-.26,.3-.45,.65-.49,1.09,.36-.06,.75-.03,1.07-.18,.57-.26,.85-.89,1.52-1.12,.81-.29,1.71-.25,2.55-.24,.53,0,1.82,.33,1.18,1.07-1.16,1.34,.37,1.22,.92,1.89,.28,.34,.33,.86,.32,1.35,.99,.08,1.66,.94,.53,1.32,.01,.02,.03,.03,.05,.05,.13,.18,.32,.44,.37,.67,.02,.09,.03,.16,.04,.22,.6,.03,1.24,.21,1.14,.68-.03,.13-.18,.76-.2,1.22,.88,0,1.79,.34,1.21,1-.29,.26-.38,.6-.35,.96,.35-.12,.75-.14,1.22-.03,.61,.15,.98,.49,1.13,1.1,.04,.16,.08,.49,.06,.8,.48-.04,.97,.04,1.31,.35,.46,.42,.44,.76,.4,1.36-.05,.71-.09,1.29,.06,1.91,.9,.08,1.68,.61,2.21,1.58,1.3,2.43,3.23,3.62,5.34,5.31,1.12,.9,2.87,1.81,3.09,3.11,.33,.06,.66,.13,.98,.22-.21-.39-.44-.78-.68-1.18-.23-.38-.46-.8-.64-1.22-.26-.05-.5-.12-.67-.24-4.93-3.28-6.76-9.42-10.21-13.95-2.05-2.69-4.32-5.26-6.13-8.13-1.38-2.2-1.82-5.69-3.96-7.28-.85-.64,.21-1.39,.8-1.58,.53-.17,1.13-.21,1.7-.12-.1-.13-.16-.28-.16-.46,0-.94,1.55-1.15,2.22-1.15,.63,0,2.22,.22,2.22,1.15s-1.55,1.15-2.22,1.15c-.15,0-.36-.01-.59-.05,.65,.52,1.14,1.16,1.54,1.87,.47-.17,1.03-.23,1.37-.23,.63,0,2.22,.22,2.22,1.15s-1.55,1.15-2.22,1.15c-.11,0-.26,0-.42-.02,.29,.74,.57,1.49,.9,2.19,.02-.03,.04-.05,.06-.08,0-.03,0-.05,0-.08,0-.94,1.55-1.15,2.22-1.15,.63,0,2.18,.22,2.22,1.13,.69,.12,1.48,.42,1.48,1.08,0,.08-.01,.15-.03,.22,.67,.02,2.15,.25,2.15,1.15,0,.63-.69,.93-1.35,1.06,.7,.03,2.09,.27,2.09,1.15,0,.42-.31,.69-.71,.87,.73,.07,1.87,.34,1.87,1.14,0,.31-.17,.53-.41,.7,.55,.16,1.05,.46,1.05,.99,0,.02,0,.03,0,.04,.73,.09,1.69,.39,1.69,1.12,0,.18-.06,.34-.16,.47,.57,.13,1.03,.4,1.14,.81,.12,.45,.29,.85,.49,1.21,2.09,.65,3.43,2,5.01,3.63,1.82,1.87,3.97,3.07,5.16,5.51,.03,.07,.05,.13,.07,.2,.48,.62,.92,1.28,1.38,1.92,1.78-.03,3.38,.5,4.7,1.92,.91,.98,1.73,1.85,2.85,2.59,.08,.05,.16,.11,.25,.16,0-.33,.19-.57,.5-.74-.17-.63-.46-1.22-.88-1.76-.85-1.07-2.09-1.46-3.17-2.21Zm-18.5,93.84c.17,.84,.13,1.77-.05,2.7,.64-.88,1.17-1.85,1.55-2.94,1.26-3.62,3.55-8.46,1.11-12.01-.35-.57,.11-.98,.84-1.18-.36-1.19-1.37-2.56-1.79-3.25-.85-1.41,3.48-1.94,4.28-.61,.37,.62,.97,1.49,1.43,2.43,.46,.07,.87,.22,1.09,.46,1.38,1.49,3.36,2.28,2.98,4.64-.41,2.58-1.88,4.91-3.15,7.15-1.17,2.05-2.16,4.45-3.87,6.12-.25,.25-.52,.46-.79,.66-2.27,2.74-5.64,4.56-9.05,5.49-.55,.15-3.65,.32-3.34-1,.77-3.24,2.62-6.19,4.41-8.96,.75-1.16,4.04-1.3,4.36,.31Zm-52.68-122.32c.09-.37,.53-.44,.85-.44,.19,0,.43,.04,.6,.13,.08,.04,.28,.18,.25,.31-.05,.19-.08,.39-.07,.59,0,.01,0,.02,0,.03,.26,.04,.55,.17,.59,.43,.05,.31,.08,.62,.11,.93,.19,0,.37,.02,.52,.06,.13,.04,.33,.13,.39,.27,.07,.13,0,.24-.09,.34,.07-.07,.01-.02,0,.01,0,.01-.01,.02-.02,.03,0,.04-.01,.08-.02,.12-.02,.16-.04,.31-.09,.47-.04,.15-.26,.22-.39,.27-.21,.07-.44,.07-.66,.04-.11-.01-.23-.04-.34-.1-.02,0-.05,0-.07,0-.17-.01-.34-.04-.49-.12-.07-.04-.19-.11-.22-.2-.17-.53-.22-1.07-.28-1.61-.19-.04-.36-.12-.46-.29-.24-.38-.24-.85-.14-1.28Zm-4.86-7.36c.21,.06,.39,.16,.51,.28,3.03,3.11,1.93,9.11-.46,12.31-.51,.68-1.87,.7-2.5,.17-1.32-1.13-1.19-3.76-1.2-5.31,0-1.33,0-2.69,.29-3.99,.29-1.31,.74-2.52,.6-3.89-.09-.94,2.63-1.01,2.73,0,.01,.15,.02,.3,.03,.44Zm5.59-8.76c.69,.06,1.04,.38,1.02,.71,.19,.09,.34,.24,.24,.43-.02,.04-.04,.09-.06,.13,0,.02,0,.03,0,.05,.11,.14,.15,.3,.1,.45,.02,.03,.03,.06,.05,.09,.01,.02,.03,.04,.04,.06l-.04-.05s.06,.06,.08,.08c.05,.06,.11,.11,.17,.15,0,0,0,0,.01,0,.09,.04,.04,.03,0,0,0,0-.01,0-.02,0,.03,.02,.07,.04,.1,.06,.03,.02,.07,.04,.1,.05,.1,.02,.09,.03,.06,.02,0,0,0,0,.01,0,.06,0,.09,0,.1,.01,.27,.01,.61,.08,.75,.32,.15,.25-.21,.44-.39,.5-.01,0-.02,0-.04,.01,.29,.42-.09,.99-1.14,.99-.87,0-1.27-.39-1.23-.77-.6-.21-.7-.71-.32-1.02-.4-.08-.63-.27-.72-.48-.07-.04-.14-.08-.21-.13-.52-.41-.57-1.16-.35-1.74,.06-.15,.26-.22,.39-.27,.21-.07,.44-.07,.66-.04,.21,.03,.53,.14,.6,.35Zm-1.59-2.84c1.65,0,1.64,1.42,0,1.42s-1.64-1.42,0-1.42Zm2.85-6.26s-.02,.04-.02,.06c0,.02-.02,.07-.02,.08-.02,.09-.03,.17-.04,.26-.03,.18-.05,.38-.13,.54-.24,.54-1.92,.37-1.65-.24,0-.02,.02-.04,.02-.06,0-.02,.02-.07,.02-.08,.02-.09,.03-.17,.04-.26,0-.06,.02-.12,.03-.18-.32-.12-.59-.32-.66-.67-.02-.12,0-.24,.01-.36,.02-.13,.02-.25,.03-.39,0,0,0,0,0,0-.02-.03-.04-.07-.05-.1,0,0,0,0,0,0-.09-.11-.11-.13-.04-.04-.02-.02-.03-.03-.05-.05-.01,0-.02-.02-.03-.03-.03-.01-.06-.04-.07-.04-.1-.05-.2-.09-.29-.14-.51-.23-.95-.5-1.28-.96-.08-.11,0-.26,.09-.34,.14-.13,.33-.17,.51-.2,.36-.06,.82,0,1.05,.31,.01,.02,.02,.03,.03,.03,.02,.02,.04,.05,.07,.07,.04,.04,.08,.07,.11,.11,.02,.01,.11,.08,.11,.09,.03,.02,.05,.03,.08,.05,.17,.1,.36,.18,.54,.26,.19,.09,.38,.19,.55,.32,.03,.03,.06,.05,.09,.08,.03,.04,.07,.08,.1,.12-.05-.06-.06-.07-.02-.03,.07,.07,.13,.16,.17,.24,.12,.28,.03,.53,0,.81,0,.04,0,.09,0,.13,0,0,0,0,0,0,0,0,0,0,0,0,0,0,0,0,.01,0h.02s0,0,0,0c.02,0,.04,0,.07,.01,.24,.04,.75,.2,.6,.55Zm11.84,4.54c-.36,.39-.84,.59-1.37,.6-.4,0-.86-.11-1.14-.41-.19-.2-.32-.43-.41-.68-.06-.15-.1-.3-.15-.46-.06-.06-.1-.13-.1-.22,0,0,0-.01,0-.02-.08-.06-.16-.12-.23-.19-.32-.3-.58-.66-.92-.94-.11-.09-.14-.21-.09-.34,.06-.15,.26-.22,.39-.27,.36-.12,.87-.09,1.17,.16,.12,.1,.22,.21,.32,.32,.18-.01,.36,0,.53,.05,.13,.04,.33,.13,.39,.27,.07,.15,.1,.3,.12,.46,.15,.04,.28,.11,.37,.22,.18,.23-.03,.41-.24,.51,.03,.11,.07,.22,.12,.33,0,0,0,.01,.01,.02,.09-.03,.18-.05,.26-.06,.22-.04,.45-.01,.66,.04,.13,.04,.33,.13,.39,.27,.07,.13,0,.24-.09,.34Zm23.2,16.67c-.15,.46-.59,.68-1.07,.79,.32,1.2-3.21,1.67-4.1,.73-1.47-1.55-3.56-2.22-5.17-3.61-1.57-1.36-2.97-3.18-4.15-4.89-.54-.79-1.03-1.66-1.8-2.26-.66-.51-1.49-.76-2.25-1.08-1.42-.61-2.86-1.43-3.32-3-.28-.94,.82-1.29,1.55-1.42,.02,0,.04,0,.06,0-.3-.36-.59-.73-.88-1.1-.6-.81,1.09-1.35,1.55-1.42,.94-.14,2.13,0,2.73,.81,.52,.69,1.08,1.32,1.68,1.94,.76,.79-.11,1.33-.87,1.58,.14,.32,.34,.58,.62,.77,.12-.05,.23-.11,.35-.15,.56-.2,1.14-.19,1.71-.06,1.77,.42,2.8,1.98,3.73,3.42,.1,.15,.2,.3,.31,.46,.06,.03,.12,.06,.16,.08,0,0,.01,0,.02,0,.37-.09,1.4-.07,1.21,.51-.08,.24-.13,.47-.16,.71,.43-.04,.9,.06,.93,.44,.03,.3,.05,.62,.14,.92,.47-.16,1.28-.16,1.34,.35,.05,.42,.07,.86,.14,1.29,.16-.04,.33-.05,.49-.04,.19,.01,.79,.12,.74,.44-.05,.33-.04,.66,.02,.98,.41-.08,.83-.1,1.25-.04,.19,.03,.8,.22,.6,.55-.12,.19-.2,.38-.24,.58,.48-.31,1.75-.2,1.5,.37-.1,.24-.15,.51-.2,.78,.18,.02,.36,.03,.54,.03,.3,0,.97,.12,.82,.56Z"/>
      <path d="M440.19,249.6c-.51-2.82-1.24-7.13-2.05-13.32-2.04-15.64-.82-14.64-2.05-17.08-1.78-3.52-4.04-5.05-6.28-6.79,.84,1.19,1.3,2.61,1.31,4.15,.84,1.49,1.47,3.1,2.46,4.52,1.15,1.66,1.44,3.27,1.45,5.27,0,.16-.04,.3-.12,.43,.68,2.24,1.14,4.54,1.18,6.96,0,.26-.11,.47-.3,.65,.33,2.59,.41,5.18,.62,7.77,.48,1.68,.54,3.57,.75,5.18,.23,1.74,.83,3.37,1.29,5.06,.48,1.73,.7,3.51,1.11,5.26,.2,.86,.45,1.96,.89,2.91l1.46-2.41c-.46-2.11-1.07-5.03-1.71-8.54Z"/>
      <path d="M416.41,234.88c-.73-2.23-1.02-4.67-2.23-6.72-.57-.95-1.28-1.81-2.01-2.65,.45,2.17,.34,4.53,.26,6.63-.01,.41-.31,.71-.74,.91,1.32,2.36,3.17,4.4,4.62,6.68,.2-1.5,.36-3.01,.32-4.5-.11-.1-.19-.22-.23-.36Z"/>
      <path d="M409.77,271.53c.07,.03,.14,.06,.2,.09,.2-.67,.62-1.45,.82-1.95,.09-.56,.14-1.12,.15-1.7,.02-1.46-.14-2.92-.16-4.38,0-.47,.21-.85,.58-1.16-.24-.12-.4-.3-.4-.53-.01-.78-.08-1.56-.2-2.33-.06-.14-.11-.29-.18-.43-.61-1.31-2.02-1.97-2.45-3.39-.31-1.05,.09-2.38-.18-3.45-.53-.01-1.07-.19-1.27-.55-.55-.98-1.28-1.8-1.91-2.72-.52-.75-.83-1.59-1.3-2.35-.71-1.14-2.19-1.52-3.14-2.5-.6-.62-.86-.98-1.7-1.05-.51-.04-.98,.04-1.48-.13-.11-.04-.21-.08-.29-.12-.02,.23-.04,.45-.04,.66-.03,.99-2.67,.99-2.73,0-.03-.48-.02-.95,.03-1.38-.85,.22-2.19-.03-2.04-.63,.13-.51,.22-1.05,.27-1.59-.71,.01-1.44-.23-1.43-.73,.01-.49,.14-.87,.37-1.2,.44-1.42,.72-2.68-.13-3.9-.1-.03-.19-.07-.28-.11,.26,3.93-.7,8.08,1.32,11.63,1.16,2.04,2.62,3.89,3.81,5.92,1.22,2.08,1.93,4.24,2.61,6.54,.29,.98,.65,1.84,1.05,2.65,.44,.78,.89,1.56,1.35,2.33,.27,.42,.56,.85,.86,1.29,.65,.96,1.18,1.92,2.05,2.71,.75,.67,1.61,1.19,2.42,1.76,.91,.65,1.8,1.34,2.63,2.1,.17,.15,.38,.32,.58,.5,.08,.03,.15,.07,.23,.1Z"/>
      <path d="M356.79,161.67c.78,.63,1.32,1.65,1.69,2.58,.2-.19,.42-.36,.65-.51-.77-.68-1.28-1.55-1.92-2.33-.13,.09-.27,.18-.41,.26Z"/>
      <path d="M423.93,273.79c.54,.48,.95,1.24,1.57,.14,.49-.88-.17-2.19-.74-3.22-.47,.9-.89,1.82-1.28,2.75,.16,.1,.31,.2,.44,.32Z"/>
      <path d="M450.44,265.31c-1.37-3.94-5.43-7.26-9.57-7.52-.42-.03-.85-.02-1.28,.02,.38,1.6,.92,3.92,2.51,4.59,1.44,.61,2.93,.74,4.02,2.01,2.26,2.62-1.18,5.01-2.96,6.62-.57,.52-2.04,.54-3.06,.24-1.13,1.53-2.74,2.98-3.45,3.61-1.74,1.55-3.78,2.51-5.62,3.89-.39,.3-.76,.62-1.11,.95,0,.15-.12,.31-.44,.44-1.28,1.33-2.32,2.88-3.37,4.4-.18,.25-.57,.39-1,.43-.36,1.04-.63,2.13-.93,3.15-.26,.91-.59,1.89-1.16,2.66,.11,.2,.22,.4,.34,.59,.7-.73,1.47-1.36,2.29-1.85,.04-.02,.08-.05,.12-.07,.93-2.11,2.38-4.23,4.42-5.39,.22-.25,.45-.48,.72-.71,1.15-.97,2.43-1.54,3.36-2.77,.74-.98,1.4-1.86,2.52-2.43,1.21-.62,2.57-.68,3.83-1.15,1.62-.61,2.74-2.01,4.11-3,1.87-1.36,3.98-2.36,6.12-3.29,.29-1.89,.2-3.73-.4-5.44Z"/>
      <path d="M439.82,266.88c.9,.3,1.33,.78,1.44,1.37,.43-.41,.8-.85,1.01-1.35,.76-1.79-1.38-2.15-2.62-2.56-2.51-.84-3.53-2.96-4.18-5.29-.16,.08-.31,.15-.47,.24,.25,.65,.49,1.31,.68,1.99,.49,1.77-3.89,2.01-4.28,.62-.17,.15-.34,.31-.5,.47,1.45,.92,2.6,2.23,4.06,3.15,1.5,.95,3.23,.82,4.86,1.37Z"/>
    </g>
  </g>
  <g id="Layer_4" data-name="Layer 4">
    <g>
      <path d="M488.52,159.73c-1.19-.04-3.55-3.09-5.61-3.82-4.87-1.71-4.07-.78-8-.95-5.97-.25-6.65-.92-12.56-1.16-.57-.02-1.14-.17-1.68-.38-1.97-.76-9.84-1.63-9.93,.48l2.97,4.74c-.07,1.73,3.8,.01,5.53,.08,.71,.03,4.13-.65,4.85-.62,4.69,.19,7.17,1.65,11.86,1.84,4.23,.17,3.21,1.05,7.44,1.22,1.23,.05,3.59,.71,4.83,.76"/>
      <path d="M440.94,153.86c.35-.22,.77-.37,1.23-.46l1.54-.57c-2.1-.74-.22-2.51-2.99-3.36-.35-.11-1.58-2.41-1.9-2.52-1.22-.41-1.49-2.35-1.92-1.13l-1.28,2.33c-.5,1.41,.45,1.35-.04,2.76l.54,1.11c.95,1.26,1.65,1.26,2.74,1.42l1.65,.58,.43-.16Z"/>
      <path d="M430.05,197.12c-.3,.85-.29,1.59-.21,2.29l.21-2.29Z"/>
      <path d="M430.06,201.96c.08-.91-.12-1.71-.22-2.56l-.12,1.26c.11,.43,.23,.86,.34,1.29Z"/>
      <path d="M553.53,201.48c-.17-3.91-1.79-1.55-5.48-2.85-2.94-1.03-5.62,.35-8.56-.68-3.4-1.19-9.81-2.05-13.22-3.24-3.57-1.25-6.47-1.8-10.04-3.05-2.65-.93-4.92-1.26-7.57-2.19-3.61-1.27-5.73-2.47-9.34-3.73-2.86-1-2.09-21.97-3.44-19.26-1.57,3.15-8.31,10.51-13.45,11.96-3.47,.98-11.93,2.4-15.51,1.98-4-.48-6.4,.45-10.5-.44-3.44-.74-7.11-2.03-10.45-3.2-1.47-.52-3.17-.5-5.13-1.83-2.37-1.6-5.61-.54-6.56,2.16h0c-.98,2.79-1.95,5.58-2.93,8.37l-1.28,16.54c.79,3.06,1.56,6.09,2.81,9.04,.34,.81,.64,1.63,.9,2.46,1.38,1.8,2.46,3.84,3.24,6.09,2.77,8.01,2.42,16.62,4.22,24.83,.81,3.7,.63,8.54,3.72,11.22,1.51,1.31,2.96,2.3,4.29,3.83,.32,.37,.64,.75,.96,1.12,.92-.46,1.87-.87,2.85-1.16,3.25-.96,7.09-1.16,10.45-1.16,3.82,0,7.63,.62,11.05,2.38,2.91,1.5,5.87,2.93,8.73,4.52,5.24,2.91,9.57,6.38,11.17,12.36,1.25,4.68,2.18,9.28,6.34,12.28,1.69,1.22,3.67,2.05,5.53,2.67,1.17,.39,2.35,.73,3.54,1.04,.51,.13,1.02,.25,1.53,.38,.06,.01,.3,.07,.47,.11,.16,.03,.37,.08,.43,.09,1.76,.37,3.54,.69,5.31,1,4.61-.04,9.2,.5,13.67,1.62,1.11-.11,2.24-.13,3.34-.07,1.24,.06,2.48,.17,3.71,.28,.49,.05,.99,.09,1.48,.14,.05,0,.09,0,.13,.01,.04,0,.09,0,.15,0,.26,0,.52,0,.78,0,0,0,0,0,0,0-.4-.01-.03-.04,0,0,.03,0,.07,0,.11,0,.27-.08,.54-.16,.81-.26,.19-.09,.38-.18,.57-.28,2.71-1.52,5.05-3.72,7.11-6.24-.87-2.2-1.38-4.55-1.94-6.84-.68-2.75-1.65-5.3-3.12-7.74-.49-.8-1.04-1.6-1.54-2.42-1.84-1.61-3.97-3.62-3.73-4.91,.04-.23,.19-.35,.37-.56,2.96-3.19,1.02-9.81,.99-10.76-.05-1.91,1.73-2.69,1.3-3.71-1.2-2.86-4.04-4.31-3.61-5.62,.23-.7,1.49-.59,.29-3.41-4.95-11.66,1.89-6.35,1.96-10.89,.06-4.14-3.8,.6-1.59-4.72,1.33-3.19,1.45-3.08,2.58-6.04,.97-2.56,5.53-9.17,5.57-11.94,.01-.8,4.43-.76,5.01-2.41,.79-2.25,1.58-4.83,1.49-6.89Z"/>
      <path d="M571.41,160.98c-2.37,6.21-5.32,23.14-9.41,28.19-7.09,8.78-3.32,9.48-6.95,11.92-4.57,3.06-32.5-4.49-53.03-11.17-28.35-9.23,26.2-41.75-46.84-55.29-9.81-1.82-12.47-2.12-12.39-2.95,.33-3.59,18.23-38.89,32.03-43.87,3.86-1.39,9.72-5.1,23.16-5.32,8.85-.14,12.98,.23,14.89,.19,5.43-.1,13.48-.37,22.52,2.72,27.07,9.28,39.52,34.14,37.64,60.41-.19,.64-1.09,13.82-1.61,15.18Z"/>
    </g>
  </g>
  <g id="Layer_7" data-name="Layer 7">
    <path class="cls-3" d="M310.79,83.31c-1.86,14.16,12.14,20.45,20.19,38.01,9.29,20.26,.54,33.37-4.75,70.09-2.23,15.47-9.55,66.3,4.75,118.2,9.32,33.83,22.51,48.8,16.04,55.24-8.48,8.44-45.32-3.1-64.74-29.1-26.5-35.48,2.74-66.7,1.78-171.06-.48-52.03-7.99-70.15,7.72-93.25,18.34-26.97,57.52-44.84,81.97-33.26,29.69,14.07,28.26,67.14,39.8,66.52,8.78-.47,6.58-31.09,28.51-63.55,7.55-11.18,26.14-38.69,54.64-40.98,35.23-2.84,70.56,34.05,65.34,49.89-3.81,11.57-26.19,2.62-71.28,21.38-23.56,9.8-45.85,19.08-61.18,41.58-7.14,10.48-9.1,18.44-14.26,18.41-12.34-.07-10.12-45.7-41.58-66.52-3.41-2.26-18.3-12.11-35.64-7.72-12.37,3.13-25.65,13.43-27.32,26.13Z"/>
    <path d="M502.05,281.1c-6.42,5.35-19.04,17.45-17.82,31.48,1.98,22.85,39.34,35.71,63.55,37.42,37.27,2.63,80.25-18.58,93.25-52.27,11.95-30.96-12.58-43.52-6.53-88.5,6.61-49.19,39.06-57.3,35.04-92.66-4.15-36.56-43.85-71.96-68.31-64.74-14.36,4.24-26.38,24.03-23.16,39.8,4.6,22.51,37.11,21.36,42.17,42.17,5.5,22.61-30.99,31.67-39.2,71.28-6.7,32.32,13.5,46.02,1.19,78.4-6.91,18.18-20.52,32.94-26.13,30.89-5.28-1.93,.38-17.31-7.72-27.32-8.46-10.46-27.62-9.74-46.33-5.94Z"/>
  </g>
</svg>